<?xml version="1.0" encoding="UTF-8"?>
<!DOCTYPE svg PUBLIC "-//W3C//DTD SVG 1.1//EN" "http://www.w3.org/Graphics/SVG/1.1/DTD/svg11.dtd">
<svg xmlns="http://www.w3.org/2000/svg" version="1.1" width="590px" height="558px" style="shape-rendering:geometricPrecision; text-rendering:geometricPrecision; image-rendering:optimizeQuality; fill-rule:evenodd; clip-rule:evenodd" xmlns:xlink="http://www.w3.org/1999/xlink">
<g><path style="opacity:1" fill="#fefefe" d="M -0.5,-0.5 C 196.167,-0.5 392.833,-0.5 589.5,-0.5C 589.5,185.5 589.5,371.5 589.5,557.5C 392.833,557.5 196.167,557.5 -0.5,557.5C -0.5,371.5 -0.5,185.5 -0.5,-0.5 Z"/></g>
<g><path style="opacity:1" fill="#e51b27" d="M 255.5,64.5 C 266.145,62.4366 274.978,65.4366 282,73.5C 283.411,75.6504 284.245,77.9837 284.5,80.5C 368.741,86.0091 430.241,126.009 469,200.5C 489.287,244.084 494.287,289.417 484,336.5C 463.573,412.928 416.073,464.428 341.5,491C 256.618,513.41 183.784,493.243 123,430.5C 89.6722,391.815 71.8389,346.815 69.5,295.5C 62.162,294.331 56.9953,290.331 54,283.5C 49.3715,265.739 56.0382,255.405 74,252.5C 89.9679,253.805 97.3012,262.471 96,278.5C 93.8373,286.663 88.8373,292.33 81,295.5C 84.1549,366.99 115.655,422.156 175.5,461C 235.609,494.987 297.609,498.654 361.5,472C 430.789,438.01 469.622,382.51 478,305.5C 481.338,225.673 449.838,163.839 383.5,120C 355.384,103.35 325.05,93.8497 292.5,91.5C 289.833,91.8333 287.167,92.1667 284.5,92.5C 279.706,104.067 271.039,109.234 258.5,108C 241.957,101.383 237.457,89.8826 245,73.5C 248.103,69.886 251.603,66.886 255.5,64.5 Z"/></g>
<g><path style="opacity:1" fill="#fefbfb" d="M 259.5,73.5 C 270.18,73.0151 275.347,78.0151 275,88.5C 271.858,95.939 266.358,98.439 258.5,96C 248.852,88.057 249.185,80.557 259.5,73.5 Z"/></g>
<g><path style="opacity:1" fill="#e51d27" d="M 434.5,85.5 C 451.445,83.6178 460.779,91.1178 462.5,108C 462.365,112.406 461.031,116.406 458.5,120C 502.86,167.376 525.527,223.709 526.5,289C 525.534,353.986 503.534,410.486 460.5,458.5C 465.856,470.566 463.19,480.4 452.5,488C 430.256,494.092 419.422,485.592 420,462.5C 423.372,452.322 430.372,446.989 441,446.5C 445.993,446.964 450.827,447.797 455.5,449C 502.815,394.711 522.648,331.544 515,259.5C 507.835,208.174 486.501,163.841 451,126.5C 438.274,132.592 428.274,129.592 421,117.5C 415.914,102.683 420.414,92.0161 434.5,85.5 Z"/></g>
<g><path style="opacity:1" fill="#fef9fa" d="M 438.5,95.5 C 450.337,96.1747 454.504,102.175 451,113.5C 440.682,122.918 433.515,120.918 429.5,107.5C 430.268,101.743 433.268,97.7434 438.5,95.5 Z"/></g>
<g><path style="opacity:1" fill="#e51c27" d="M 266.5,110.5 C 343.697,109.165 401.197,141.832 439,208.5C 467.752,271.384 463.752,332.05 427,390.5C 382.723,450.041 323.556,475.208 249.5,466C 191.559,454.041 148.392,422.208 120,370.5C 93.2057,313.985 94.2057,257.985 123,202.5C 155.823,148.501 203.656,117.834 266.5,110.5 Z"/></g>
<g><path style="opacity:1" fill="#fefefe" d="M 265.5,121.5 C 336.532,119.922 390.366,149.255 427,209.5C 449.08,251.217 453.747,294.884 441,340.5C 419.466,402.029 376.966,440.529 313.5,456C 235.366,468.007 175.199,440.841 133,374.5C 102.756,317.591 103.089,260.924 134,204.5C 164.763,156.256 208.597,128.59 265.5,121.5 Z"/></g>
<g><path style="opacity:1" fill="#e41624" d="M 278.5,191.5 C 305.305,212.82 335.138,228.487 368,238.5C 370.484,274.188 362.818,307.521 345,338.5C 328.881,362.813 307.048,379.813 279.5,389.5C 238.399,373.67 211.232,344.67 198,302.5C 191.734,281.273 189.234,259.606 190.5,237.5C 223.572,228.967 252.906,213.634 278.5,191.5 Z"/></g>
<g><path style="opacity:1" fill="#fefdfd" d="M 278.5,205.5 C 280.144,205.286 281.644,205.62 283,206.5C 286.785,214.571 290.951,222.405 295.5,230C 299.732,229.757 303.732,228.591 307.5,226.5C 308.647,226.818 309.481,227.484 310,228.5C 308.492,240.862 306.825,253.195 305,265.5C 306.133,267.211 307.633,267.711 309.5,267C 314.119,261.703 319.286,257.203 325,253.5C 326.107,253.585 327.107,253.919 328,254.5C 328.912,256.659 329.745,258.825 330.5,261C 338.167,260 345.833,259 353.5,258C 354.022,258.561 354.355,259.228 354.5,260C 352.686,267.577 350.686,275.077 348.5,282.5C 350.825,284.665 353.159,286.832 355.5,289C 355.097,290.473 354.43,291.806 353.5,293C 341.378,302.12 329.544,311.62 318,321.5C 317.738,325.234 318.238,328.901 319.5,332.5C 319.43,333.772 319.097,334.938 318.5,336C 307.671,334.57 296.838,332.736 286,330.5C 284.893,330.585 283.893,330.919 283,331.5C 282.667,344.5 282.333,357.5 282,370.5C 280.333,371.833 278.667,371.833 277,370.5C 276.667,357.833 276.333,345.167 276,332.5C 275.044,331.106 273.711,330.439 272,330.5C 261.463,332.61 250.963,334.443 240.5,336C 239.196,335.196 238.529,334.029 238.5,332.5C 239.882,328.879 240.715,325.212 241,321.5C 228.184,311.514 215.684,301.181 203.5,290.5C 205.687,288.15 208.187,286.15 211,284.5C 211.167,283.333 211.333,282.167 211.5,281C 209.939,274.15 208.273,267.316 206.5,260.5C 206.608,259.558 206.941,258.725 207.5,258C 209.5,257.333 211.5,257.333 213.5,258C 219.012,260.131 224.679,261.131 230.5,261C 230.688,254.453 233.688,252.453 239.5,255C 243.167,258.667 246.833,262.333 250.5,266C 252.441,266.743 254.274,266.576 256,265.5C 253.694,252.936 252.028,240.269 251,227.5C 251.725,226.941 252.558,226.608 253.5,226.5C 256.586,227.921 259.753,229.254 263,230.5C 263.873,230.265 264.707,229.931 265.5,229.5C 270.354,221.792 274.688,213.792 278.5,205.5 Z"/></g>
<g><path style="opacity:1" fill="#fefafa" d="M 71.5,261.5 C 84.1636,262.15 88.3303,268.483 84,280.5C 76.9178,287.465 70.2511,287.132 64,279.5C 61.2724,271.292 63.7724,265.292 71.5,261.5 Z"/></g>
<g><path style="opacity:1" fill="#fefafa" d="M 437.5,456.5 C 449.853,456.68 454.353,462.68 451,474.5C 443.603,482.768 436.603,482.435 430,473.5C 427.66,465.525 430.16,459.858 437.5,456.5 Z"/></g>
</svg>
