<?xml version="1.0" encoding="utf-8"?>
<!-- Generator: Adobe Illustrator 25.3.1, SVG Export Plug-In . SVG Version: 6.00 Build 0)  -->
<svg version="1.1" id="Layer_2_1_" xmlns="http://www.w3.org/2000/svg" xmlns:xlink="http://www.w3.org/1999/xlink" x="0px" y="0px"
	 viewBox="0 0 360 270" style="enable-background:new 0 0 360 270;" xml:space="preserve">
<style type="text/css">
	.st0{fill-rule:evenodd;clip-rule:evenodd;fill:#E40E21;}
	.st1{fill:#E40E21;}
	.st2{enable-background:new    ;}
</style>
<g>
	<path class="st0" d="M214.6,74.5c-15.2-3.4-31.8-15.2-34.2-18.1c-1.7,1.5-14.9,13.2-34.4,18.1c-0.8,7.1-1.1,45.9,34.4,58.5
		C216.1,120.4,215.5,81.7,214.6,74.5z M209.1,95.8l-13.7,10.9c-0.4,0.4-0.6,0.9-0.4,1.3l0.9,3.2c0.4,0.9-0.4,1.7-1.3,1.5l-11.7-2.3
		c-0.8-0.2-1.5,0.4-1.5,1.1V125c0,0.6-0.4,1.1-1.1,1.1c-0.6,0-1.1-0.6-1.1-1.1v-13.4c0-0.8-0.8-1.3-1.5-1.1l-11.7,2.3
		c-0.8,0.2-1.5-0.6-1.3-1.5l0.9-3.2c0.2-0.6,0-0.9-0.4-1.3l-13.7-10.9c-0.6-0.4-0.6-1.5,0.2-1.9l1.9-1.1c0.6-0.2,0.8-0.8,0.6-1.3
		l-2.3-7.9c-0.2-0.9,0.6-1.7,1.5-1.5l6.6,1.7c0.8,0.2,1.3-0.2,1.5-0.8l0.8-2.1c0.4-0.8,1.5-0.9,2.1-0.4l4.9,4.9
		c0.9,0.8,2.3,0,2.1-1.1l-2.4-13c-0.2-0.9,0.8-1.7,1.7-1.3l2.6,1.3c0.8,0.2,1.3,0,1.7-0.6l4.3-8.3c0.4-0.9,1.7-0.9,2.1,0l4.3,8.3
		c0.4,0.6,1.1,0.9,1.7,0.6l2.8-1.3c0.9-0.4,1.9,0.4,1.7,1.3l-2.4,13c-0.2,1.1,1.3,1.9,2.1,1.1l4.9-4.9c0.8-0.8,1.7-0.4,2.1,0.4
		l0.8,2.1c0.4,0.6,0.9,0.9,1.5,0.8l6.6-1.7c0.9-0.2,1.7,0.6,1.5,1.5l-2.3,7.9c-0.2,0.4,0,0.9,0.6,1.3l1.9,1.1
		C209.7,94.3,209.9,95.2,209.1,95.8z"/>
	<path class="st1" d="M180.3,25.3c-38.2,0-69.4,31.2-69.4,69.4c0,38.2,31.2,69.4,69.4,69.4s69.4-31,69.4-69.4
		C249.7,56.5,218.5,25.3,180.3,25.3z M180.3,160.3c-36.1,0-65.5-29.5-65.5-65.7c0-36.1,29.3-65.5,65.5-65.5s65.5,29.3,65.5,65.7
		C245.8,131,216.4,160.3,180.3,160.3z"/>
	<path class="st1" d="M180.3,176.1c-44.8,0-81.3-36.5-81.3-81.3h4c0,42.7,34.6,77.3,77.3,77.3s77.3-34.6,77.3-77.3
		S223,17.5,180.3,17.5v-4.1c44.8,0,81.3,36.5,81.3,81.3C261.6,139.6,225.1,176.1,180.3,176.1z"/>
	<path class="st1" d="M249.2,161.3l-2.8-2.6c16.6-17.1,25.8-39.9,25.8-63.8c0-24.5-9.6-47.6-26.9-64.9l2.8-2.8
		c18.1,18.1,28,42.1,28,67.7C276.1,119.7,266.5,143.2,249.2,161.3z"/>
	<path class="st1" d="M182.3,13.4c-0.9-3.7-4.2-6.4-8.2-6.4c-4.7,0-8.5,3.8-8.5,8.5s3.8,8.5,8.5,8.5c4,0,7.3-2.7,8.2-6.4
		c0.2-0.7,0.3-1.4,0.3-2.1C182.6,14.8,182.5,14.1,182.3,13.4z M174.1,20c-2.4,0-4.5-2.1-4.5-4.5s2.1-4.5,4.5-4.5s4.5,1.9,4.5,4.5
		C178.6,17.9,176.6,20,174.1,20z"/>
	<path class="st1" d="M100.9,80c-4.7,0-8.5,3.8-8.5,8.5c0,4.1,2.8,7.4,6.6,8.3c0.6,0.1,1.2,0.2,1.9,0.2c0.7,0,1.4-0.1,2.1-0.3
		c3.7-0.9,6.4-4.2,6.4-8.2C109.4,83.8,105.6,80,100.9,80z M100.9,93c-2.4,0-4.5-2.1-4.5-4.5c0-2.4,2.1-4.5,4.5-4.5
		c2.6,0,4.7,2.1,4.5,4.5C105.5,90.9,103.4,93,100.9,93z"/>
	<path class="st1" d="M250.4,159.9c-0.6-1.2-1.5-2.2-2.5-2.9c-1.4-1-3.1-1.6-4.9-1.6c-4.7,0-8.5,3.8-8.5,8.5c0,4.7,3.8,8.5,8.5,8.5
		s8.5-3.8,8.5-8.5C251.4,162.4,251.1,161.1,250.4,159.9z M243,168.4c-2.4,0-4.5-2.1-4.5-4.5c0-2.4,2.1-4.5,4.5-4.5s4.5,2.1,4.5,4.5
		C247.5,166.3,245.4,168.4,243,168.4z"/>
	<path class="st1" d="M243,15.5c-4.7,0-8.5,3.8-8.5,8.5s3.8,8.5,8.5,8.5c1.4,0,2.7-0.3,3.8-0.9c1.2-0.6,2.3-1.5,3.1-2.6
		c1-1.4,1.6-3.1,1.6-5C251.4,19.2,247.7,15.5,243,15.5z M238.5,23.9c0-2.4,2.1-4.5,4.5-4.5s4.5,2.1,4.5,4.5s-2.1,4.5-4.5,4.5
		S238.5,26.4,238.5,23.9z"/>
	<g class="st2">
		<path class="st1" d="M53.5,206.3c0.8-1.5,2-2.7,3.5-3.6c1.5-0.9,3.2-1.3,5.2-1.3c2.4,0,4.4,0.6,6.1,1.9c1.7,1.2,2.8,2.9,3.4,5.1
			l-5.3,0c-0.4-0.8-1-1.5-1.7-1.9c-0.7-0.4-1.6-0.6-2.5-0.6c-1.5,0-2.7,0.5-3.6,1.6c-0.9,1-1.4,2.4-1.4,4.2c0,1.7,0.5,3.1,1.4,4.2
			c0.9,1,2.1,1.6,3.6,1.5c0.9,0,1.8-0.2,2.5-0.7c0.7-0.4,1.3-1.1,1.7-1.9l5.3,0c-0.6,2.2-1.7,3.9-3.4,5.1c-1.7,1.2-3.7,1.9-6.1,1.9
			c-1.9,0-3.7-0.4-5.2-1.3c-1.5-0.9-2.7-2-3.6-3.6c-0.9-1.5-1.3-3.3-1.3-5.2C52.2,209.5,52.6,207.8,53.5,206.3z"/>
		<path class="st1" d="M74.6,209.2c0.6-1.2,1.4-2.2,2.5-2.8c1.1-0.7,2.2-1,3.5-1c1.1,0,2.1,0.2,2.9,0.7c0.8,0.4,1.5,1,1.9,1.8l0-2.2
			l4.8,0l0,15.8l-4.8,0l0-2.2c-0.5,0.7-1.1,1.3-2,1.8c-0.8,0.5-1.8,0.7-2.9,0.7c-1.3,0-2.5-0.3-3.5-1c-1.1-0.7-1.9-1.6-2.5-2.9
			c-0.6-1.2-0.9-2.7-0.9-4.3C73.7,211.9,74,210.4,74.6,209.2z M84.5,210.6c-0.7-0.7-1.5-1-2.5-1c-1,0-1.8,0.4-2.4,1
			c-0.7,0.7-1,1.6-1,2.9c0,1.2,0.3,2.2,1,2.9c0.7,0.7,1.5,1.1,2.5,1.1c1,0,1.8-0.4,2.4-1.1c0.7-0.7,1-1.7,1-2.9
			S85.2,211.3,84.5,210.6z"/>
		<path class="st1" d="M108,207.1c1.1,1.2,1.7,2.8,1.7,4.9l0,9.2l-4.8,0l0-8.6c0-1.1-0.3-1.9-0.8-2.5c-0.6-0.6-1.3-0.9-2.2-0.9
			c-0.9,0-1.7,0.3-2.2,0.9c-0.5,0.6-0.8,1.4-0.8,2.5l0,8.6l-4.8,0l0-15.8l4.8,0l0,2.1c0.5-0.7,1.1-1.3,2-1.7
			c0.8-0.4,1.8-0.6,2.8-0.6C105.4,205.3,106.8,205.9,108,207.1z"/>
		<path class="st1" d="M112.9,209.1c0.6-1.2,1.4-2.2,2.5-2.8c1.1-0.7,2.2-1,3.5-1c1.1,0,2.1,0.2,2.9,0.7c0.8,0.4,1.5,1,1.9,1.8
			l0-2.2l4.8,0l0,15.8l-4.8,0l0-2.2c-0.5,0.7-1.1,1.3-2,1.8c-0.8,0.5-1.8,0.7-2.9,0.7c-1.3,0-2.5-0.3-3.5-1
			c-1.1-0.7-1.9-1.6-2.5-2.9c-0.6-1.2-0.9-2.7-0.9-4.3C112,211.8,112.3,210.3,112.9,209.1z M122.9,210.5c-0.7-0.7-1.5-1-2.5-1
			s-1.8,0.4-2.4,1c-0.7,0.7-1,1.6-1,2.9c0,1.2,0.3,2.2,1,2.9c0.7,0.7,1.5,1.1,2.5,1.1c1,0,1.8-0.4,2.4-1.1c0.7-0.7,1-1.7,1-2.9
			C123.9,212.2,123.5,211.2,122.9,210.5z"/>
		<path class="st1" d="M132.2,209c0.6-1.2,1.4-2.2,2.5-2.8c1.1-0.7,2.2-1,3.5-1c1,0,2,0.2,2.9,0.6c0.9,0.4,1.5,1,2,1.8l0-7.3l4.8,0
			l0.1,21l-4.8,0l0-2.3c-0.5,0.8-1.1,1.4-1.9,1.8s-1.8,0.7-2.9,0.7c-1.3,0-2.5-0.3-3.5-1c-1.1-0.7-1.9-1.6-2.5-2.9
			c-0.6-1.2-0.9-2.7-0.9-4.3C131.3,211.7,131.6,210.3,132.2,209z M142.1,210.5c-0.7-0.7-1.5-1-2.5-1s-1.8,0.4-2.4,1
			c-0.7,0.7-1,1.6-1,2.9c0,1.2,0.3,2.2,1,2.9c0.7,0.7,1.5,1.1,2.5,1.1s1.8-0.4,2.4-1.1c0.7-0.7,1-1.7,1-2.9
			C143.1,212.1,142.8,211.2,142.1,210.5z"/>
		<path class="st1" d="M151.8,203c-0.5-0.5-0.8-1.1-0.8-1.9c0-0.8,0.3-1.4,0.8-1.9c0.5-0.5,1.2-0.8,2.1-0.8c0.8,0,1.5,0.2,2.1,0.7
			c0.5,0.5,0.8,1.1,0.8,1.9c0,0.7-0.3,1.4-0.8,1.9c-0.5,0.5-1.2,0.8-2.1,0.8C153,203.7,152.4,203.5,151.8,203z M156.3,205.4l0,15.8
			l-4.8,0l0-15.8L156.3,205.4z"/>
		<path class="st1" d="M159.8,209c0.6-1.2,1.4-2.2,2.5-2.8c1.1-0.7,2.2-1,3.5-1c1.1,0,2.1,0.2,2.9,0.7c0.8,0.4,1.5,1,1.9,1.8l0-2.2
			l4.8,0l0,15.8l-4.8,0l0-2.2c-0.5,0.7-1.1,1.3-2,1.8c-0.8,0.5-1.8,0.7-2.9,0.7c-1.3,0-2.5-0.3-3.5-1c-1.1-0.7-1.9-1.6-2.5-2.9
			c-0.6-1.2-0.9-2.7-0.9-4.3C158.9,211.6,159.2,210.2,159.8,209z M169.7,210.4c-0.7-0.7-1.5-1-2.5-1c-1,0-1.8,0.4-2.4,1
			c-0.7,0.7-1,1.6-1,2.9c0,1.2,0.3,2.2,1,2.9c0.7,0.7,1.5,1.1,2.5,1.1c1,0,1.8-0.4,2.4-1.1c0.7-0.7,1-1.7,1-2.9
			S170.4,211.1,169.7,210.4z"/>
		<path class="st1" d="M193.1,206.9c1.1,1.2,1.7,2.8,1.7,4.9l0,9.2l-4.8,0l0-8.6c0-1.1-0.3-1.9-0.8-2.5c-0.5-0.6-1.3-0.9-2.2-0.9
			c-0.9,0-1.7,0.3-2.2,0.9c-0.5,0.6-0.8,1.4-0.8,2.5l0,8.6l-4.8,0l0-15.8l4.8,0l0,2.1c0.5-0.7,1.1-1.3,2-1.7
			c0.8-0.4,1.8-0.6,2.8-0.6C190.6,205.1,192,205.7,193.1,206.9z"/>
		<path class="st1" d="M218.4,224.4l-2.6-3.4c-0.8,0.2-1.5,0.2-2.2,0.2c-1.9,0-3.6-0.4-5.1-1.3c-1.6-0.9-2.8-2.1-3.7-3.6
			c-0.9-1.6-1.4-3.3-1.4-5.3c0-1.9,0.4-3.7,1.4-5.2c0.9-1.6,2.1-2.8,3.7-3.6c1.6-0.9,3.3-1.3,5.1-1.3c1.9,0,3.6,0.4,5.1,1.3
			c1.6,0.9,2.8,2.1,3.7,3.6c0.9,1.5,1.4,3.3,1.4,5.2c0,1.7-0.3,3.3-1,4.7c-0.7,1.4-1.6,2.6-2.9,3.5l4.4,5.2L218.4,224.4z
			 M209.8,215.2c1,1,2.2,1.6,3.8,1.6c1.6,0,2.9-0.5,3.8-1.6c1-1.1,1.4-2.5,1.4-4.2c0-1.8-0.5-3.2-1.4-4.2c-1-1-2.2-1.6-3.8-1.6
			c-1.6,0-2.9,0.5-3.8,1.6c-1,1-1.4,2.5-1.4,4.2C208.3,212.8,208.8,214.2,209.8,215.2z"/>
		<path class="st1" d="M242.1,205.1l0,15.8l-4.8,0l0-2.2c-0.5,0.7-1.2,1.3-2,1.7c-0.8,0.4-1.8,0.6-2.8,0.6c-1.2,0-2.3-0.3-3.2-0.8
			c-0.9-0.5-1.6-1.3-2.2-2.3c-0.5-1-0.8-2.2-0.8-3.6l0-9.2l4.8,0l0,8.6c0,1.1,0.3,1.9,0.8,2.5c0.5,0.6,1.3,0.9,2.2,0.9
			c0.9,0,1.7-0.3,2.2-0.9c0.5-0.6,0.8-1.4,0.8-2.5l0-8.6L242.1,205.1z"/>
		<path class="st1" d="M245.6,208.7c0.6-1.2,1.4-2.2,2.5-2.8c1.1-0.7,2.2-1,3.5-1c1.1,0,2.1,0.2,2.9,0.7c0.8,0.4,1.5,1,1.9,1.8
			l0-2.2l4.8,0l0,15.8l-4.8,0l0-2.2c-0.5,0.7-1.1,1.3-2,1.8c-0.8,0.5-1.8,0.7-2.9,0.7c-1.3,0-2.5-0.3-3.5-1
			c-1.1-0.7-1.9-1.6-2.5-2.9c-0.6-1.2-0.9-2.7-0.9-4.3C244.7,211.4,245,209.9,245.6,208.7z M255.5,210.1c-0.7-0.7-1.5-1-2.5-1
			c-1,0-1.8,0.4-2.4,1c-0.7,0.7-1,1.6-1,2.9c0,1.2,0.3,2.2,1,2.9c0.7,0.7,1.5,1.1,2.5,1.1c1,0,1.8-0.4,2.4-1.1c0.7-0.7,1-1.7,1-2.9
			S256.2,210.8,255.5,210.1z"/>
		<path class="st1" d="M269.7,199.9l0.1,21l-4.8,0l-0.1-21L269.7,199.9z"/>
		<path class="st1" d="M273.6,202.6c-0.5-0.5-0.8-1.1-0.8-1.9c0-0.8,0.3-1.4,0.8-1.9c0.5-0.5,1.2-0.8,2.1-0.8c0.8,0,1.5,0.2,2.1,0.7
			c0.5,0.5,0.8,1.1,0.8,1.9c0,0.7-0.3,1.4-0.8,1.9c-0.5,0.5-1.2,0.8-2.1,0.8C274.8,203.4,274.1,203.1,273.6,202.6z M278.1,205
			l0,15.8l-4.8,0l0-15.8L278.1,205z"/>
		<path class="st1" d="M290.4,216.7l0,4.1l-2.5,0c-1.8,0-3.1-0.4-4.1-1.3c-1-0.9-1.5-2.3-1.5-4.2l0-6.3l-1.9,0l0-4l1.9,0l0-3.9
			l4.8,0l0,3.9l3.2,0l0,4l-3.2,0l0,6.3c0,0.5,0.1,0.8,0.3,1c0.2,0.2,0.6,0.3,1.1,0.3L290.4,216.7z"/>
		<path class="st1" d="M309.2,204.9l-9.9,23.4l-5.2,0l3.6-8.1l-6.5-15.3l5.4,0l3.7,9.9l3.6-9.9L309.2,204.9z"/>
	</g>
	<g class="st2">
		<path class="st1" d="M7,243.5c0.6-1.2,1.4-2.2,2.5-2.8s2.2-1,3.5-1c1.1,0,2.1,0.2,2.9,0.7c0.8,0.4,1.5,1,1.9,1.8l0-2.2l4.8,0
			l0,15.8l-4.8,0l0-2.2c-0.5,0.7-1.1,1.3-2,1.8c-0.8,0.5-1.8,0.7-2.9,0.7c-1.3,0-2.5-0.3-3.5-1c-1.1-0.7-1.9-1.6-2.5-2.9
			c-0.6-1.2-0.9-2.7-0.9-4.3C6.1,246.1,6.4,244.7,7,243.5z M16.9,244.9c-0.7-0.7-1.5-1-2.5-1c-1,0-1.8,0.4-2.4,1
			c-0.7,0.7-1,1.6-1,2.9c0,1.2,0.3,2.2,1,2.9c0.7,0.7,1.5,1.1,2.5,1.1s1.8-0.4,2.4-1.1c0.7-0.7,1-1.7,1-2.9
			C18,246.5,17.6,245.6,16.9,244.9z"/>
		<path class="st1" d="M40.4,241.4c1.1,1.2,1.7,2.8,1.7,4.9l0,9.2l-4.8,0l0-8.6c0-1.1-0.3-1.9-0.8-2.5c-0.6-0.6-1.3-0.9-2.2-0.9
			c-0.9,0-1.7,0.3-2.2,0.9c-0.5,0.6-0.8,1.4-0.8,2.5l0,8.6l-4.8,0l0-15.8l4.8,0l0,2.1c0.5-0.7,1.1-1.3,2-1.7
			c0.8-0.4,1.8-0.6,2.8-0.6C37.8,239.6,39.3,240.2,40.4,241.4z"/>
		<path class="st1" d="M45.4,243.3c0.6-1.2,1.4-2.2,2.5-2.8c1.1-0.7,2.2-1,3.5-1c1,0,2,0.2,2.9,0.6c0.9,0.4,1.5,1,2,1.8l0-7.3l4.8,0
			l0.1,21l-4.8,0l0-2.3c-0.5,0.8-1.1,1.4-1.9,1.8c-0.8,0.5-1.8,0.7-2.9,0.7c-1.3,0-2.5-0.3-3.5-1c-1.1-0.7-1.9-1.6-2.5-2.9
			c-0.6-1.2-0.9-2.7-0.9-4.3C44.5,246,44.8,244.6,45.4,243.3z M55.3,244.8c-0.7-0.7-1.5-1-2.5-1c-1,0-1.8,0.4-2.4,1
			c-0.7,0.7-1,1.6-1,2.9c0,1.2,0.3,2.2,1,2.9c0.7,0.7,1.5,1.1,2.5,1.1s1.8-0.4,2.4-1.1c0.7-0.7,1-1.7,1-2.9
			C56.3,246.4,56,245.5,55.3,244.8z"/>
		<path class="st1" d="M84.9,235.5l0,3.9l-5.3,0l0,16l-4.8,0l0-16l-5.3,0l0-3.9L84.9,235.5z"/>
		<path class="st1" d="M102.2,248.6l-11,0c0.1,1,0.4,1.7,1,2.3c0.6,0.5,1.2,0.8,2.1,0.8c1.2,0,2-0.5,2.5-1.5l5.2,0
			c-0.3,1-0.7,2-1.4,2.8c-0.7,0.8-1.5,1.5-2.6,2c-1,0.5-2.2,0.7-3.5,0.7c-1.5,0-2.9-0.3-4.1-1c-1.2-0.7-2.2-1.6-2.8-2.8
			c-0.7-1.2-1-2.7-1-4.3c0-1.6,0.3-3.1,1-4.3c0.7-1.2,1.6-2.2,2.8-2.8c1.2-0.7,2.6-1,4.2-1c1.5,0,2.9,0.3,4.1,1s2.1,1.6,2.8,2.7
			c0.7,1.2,1,2.6,1,4.2C102.3,247.7,102.3,248.2,102.2,248.6z M97.4,246c0-0.8-0.3-1.5-0.9-2s-1.3-0.7-2.1-0.7
			c-0.8,0-1.5,0.2-2.1,0.7c-0.6,0.5-0.9,1.1-1,2L97.4,246z"/>
		<path class="st1" d="M107.6,254.9c-1.1-0.5-1.9-1.1-2.6-1.9c-0.6-0.8-1-1.7-1.1-2.8l4.8,0c0.1,0.5,0.3,1,0.8,1.3
			c0.5,0.3,1,0.5,1.7,0.5c0.6,0,1.1-0.1,1.4-0.4c0.3-0.2,0.5-0.5,0.5-0.9c0-0.5-0.2-0.8-0.7-1c-0.5-0.2-1.2-0.5-2.3-0.7
			c-1.1-0.3-2.1-0.5-2.8-0.8c-0.8-0.3-1.4-0.8-2-1.4c-0.5-0.6-0.8-1.5-0.8-2.6c0-0.9,0.2-1.7,0.7-2.5c0.5-0.7,1.2-1.3,2.2-1.8
			c1-0.4,2.1-0.7,3.5-0.7c2,0,3.5,0.5,4.7,1.5c1.1,1,1.8,2.3,2,3.9l-4.5,0c-0.1-0.5-0.3-1-0.7-1.3c-0.4-0.3-0.9-0.5-1.6-0.5
			c-0.6,0-1,0.1-1.3,0.3c-0.3,0.2-0.5,0.5-0.5,0.9c0,0.5,0.2,0.8,0.7,1c0.5,0.2,1.2,0.5,2.3,0.7c1.2,0.3,2.1,0.6,2.9,0.9
			c0.7,0.3,1.4,0.8,1.9,1.4c0.6,0.7,0.8,1.5,0.9,2.6c0,0.9-0.3,1.8-0.8,2.5c-0.5,0.7-1.3,1.3-2.2,1.7c-1,0.4-2.1,0.6-3.4,0.6
			C110,255.6,108.7,255.4,107.6,254.9z"/>
		<path class="st1" d="M129.5,251.2l0,4.1l-2.5,0c-1.8,0-3.1-0.4-4.1-1.3c-1-0.9-1.5-2.3-1.5-4.2l0-6.3l-1.9,0l0-4l1.9,0l0-3.9
			l4.8,0l0,3.9l3.2,0l0,4l-3.2,0l0,6.3c0,0.5,0.1,0.8,0.3,1c0.2,0.2,0.6,0.3,1.1,0.3L129.5,251.2z"/>
		<path class="st1" d="M132.5,237.1c-0.5-0.5-0.8-1.1-0.8-1.9c0-0.8,0.3-1.4,0.8-1.9c0.5-0.5,1.2-0.8,2.1-0.8c0.8,0,1.5,0.2,2.1,0.7
			c0.5,0.5,0.8,1.1,0.8,1.9c0,0.7-0.3,1.4-0.8,1.9c-0.5,0.5-1.2,0.8-2.1,0.8C133.8,237.8,133.1,237.6,132.5,237.1z M137,239.5
			l0,15.8l-4.8,0l0-15.8L137,239.5z"/>
		<path class="st1" d="M154.6,241.1c1.1,1.2,1.7,2.8,1.7,4.9l0,9.2l-4.8,0l0-8.6c0-1.1-0.3-1.9-0.8-2.5c-0.6-0.6-1.3-0.9-2.2-0.9
			c-0.9,0-1.7,0.3-2.2,0.9c-0.5,0.6-0.8,1.4-0.8,2.5l0,8.6l-4.8,0l0-15.8l4.8,0l0,2.1c0.5-0.7,1.1-1.3,2-1.7
			c0.8-0.4,1.8-0.6,2.8-0.6C152,239.3,153.5,239.9,154.6,241.1z"/>
		<path class="st1" d="M168.6,239.8c0.8,0.4,1.5,1,1.9,1.8l0-2.2l4.8,0l0,15.8c0,1.5-0.3,2.8-0.9,4c-0.6,1.2-1.4,2.1-2.6,2.8
			c-1.2,0.7-2.6,1.1-4.4,1.1c-2.3,0-4.2-0.5-5.7-1.6s-2.3-2.6-2.5-4.5l4.8,0c0.2,0.6,0.5,1.1,1.1,1.4c0.6,0.3,1.3,0.5,2.1,0.5
			c1,0,1.8-0.3,2.4-0.9c0.6-0.6,0.9-1.5,0.9-2.8l0-2.2c-0.5,0.7-1.1,1.3-2,1.8c-0.8,0.5-1.8,0.7-2.9,0.7c-1.3,0-2.5-0.3-3.5-1
			c-1.1-0.7-1.9-1.6-2.5-2.9c-0.6-1.2-0.9-2.7-0.9-4.3c0-1.6,0.3-3.1,0.9-4.3c0.6-1.2,1.4-2.2,2.5-2.8c1.1-0.7,2.2-1,3.5-1
			C166.8,239.2,167.7,239.4,168.6,239.8z M169.5,244.4c-0.7-0.7-1.5-1-2.5-1s-1.8,0.4-2.4,1c-0.7,0.7-1,1.6-1,2.9
			c0,1.2,0.3,2.2,1,2.9c0.7,0.7,1.5,1.1,2.5,1.1c1,0,1.8-0.4,2.4-1.1c0.7-0.7,1-1.7,1-2.9C170.5,246.1,170.2,245.1,169.5,244.4z"/>
		<path class="st1" d="M197.3,251.6l-7.4,0l-1.2,3.5l-5.1,0l7.1-19.9l5.6,0l7.3,19.9l-5.1,0L197.3,251.6z M196,247.9l-2.5-7.3
			l-2.4,7.3L196,247.9z"/>
		<path class="st1" d="M208.6,254.6c-1.1-0.5-1.9-1.1-2.6-1.9c-0.6-0.8-1-1.7-1.1-2.8l4.8,0c0.1,0.5,0.3,1,0.8,1.3
			c0.5,0.3,1,0.5,1.7,0.5c0.6,0,1.1-0.1,1.4-0.4c0.3-0.2,0.5-0.5,0.5-0.9c0-0.5-0.2-0.8-0.7-1c-0.5-0.2-1.2-0.5-2.3-0.7
			c-1.1-0.3-2.1-0.5-2.8-0.8c-0.8-0.3-1.4-0.8-2-1.4c-0.5-0.6-0.8-1.5-0.8-2.6c0-0.9,0.2-1.7,0.7-2.5c0.5-0.7,1.2-1.3,2.2-1.8
			c1-0.4,2.1-0.7,3.5-0.7c2,0,3.5,0.5,4.7,1.5c1.1,1,1.8,2.3,2,3.9l-4.5,0c-0.1-0.5-0.3-1-0.7-1.3c-0.4-0.3-0.9-0.5-1.6-0.5
			c-0.6,0-1,0.1-1.3,0.3c-0.3,0.2-0.5,0.5-0.5,0.9c0,0.5,0.2,0.8,0.7,1c0.5,0.2,1.2,0.5,2.3,0.7c1.2,0.3,2.1,0.6,2.9,0.9
			c0.7,0.3,1.4,0.8,1.9,1.4c0.6,0.7,0.8,1.5,0.9,2.6c0,0.9-0.3,1.8-0.8,2.5c-0.5,0.7-1.3,1.3-2.2,1.7c-1,0.4-2.1,0.6-3.4,0.6
			C210.9,255.3,209.6,255.1,208.6,254.6z"/>
		<path class="st1" d="M224.4,254.6c-1.1-0.5-1.9-1.1-2.6-1.9c-0.6-0.8-1-1.7-1.1-2.8l4.8,0c0.1,0.5,0.3,1,0.8,1.3
			c0.5,0.3,1,0.5,1.7,0.5c0.6,0,1.1-0.1,1.4-0.4c0.3-0.2,0.5-0.5,0.5-0.9c0-0.5-0.2-0.8-0.7-1c-0.5-0.2-1.2-0.5-2.3-0.7
			c-1.1-0.3-2.1-0.5-2.8-0.8c-0.8-0.3-1.4-0.8-2-1.4c-0.5-0.6-0.8-1.5-0.8-2.6c0-0.9,0.2-1.7,0.7-2.5c0.5-0.7,1.2-1.3,2.2-1.8
			c1-0.4,2.1-0.7,3.5-0.7c2,0,3.5,0.5,4.7,1.5c1.1,1,1.8,2.3,2,3.9l-4.5,0c-0.1-0.5-0.3-1-0.7-1.3c-0.4-0.3-0.9-0.5-1.6-0.5
			c-0.6,0-1,0.1-1.3,0.3c-0.3,0.2-0.5,0.5-0.5,0.9c0,0.5,0.2,0.8,0.7,1c0.5,0.2,1.2,0.5,2.3,0.7c1.2,0.3,2.1,0.6,2.9,0.9
			c0.7,0.3,1.4,0.8,1.9,1.4c0.6,0.7,0.8,1.5,0.9,2.6c0,0.9-0.3,1.8-0.8,2.5c-0.5,0.7-1.3,1.3-2.2,1.7c-1,0.4-2.1,0.6-3.4,0.6
			C226.7,255.3,225.5,255,224.4,254.6z"/>
		<path class="st1" d="M240.5,254.2c-1.2-0.7-2.2-1.6-2.9-2.8c-0.7-1.2-1.1-2.7-1.1-4.3c0-1.6,0.3-3.1,1.1-4.3
			c0.7-1.2,1.7-2.2,2.9-2.9c1.2-0.7,2.6-1,4.2-1c1.5,0,2.9,0.3,4.2,1c1.2,0.7,2.2,1.6,3,2.8c0.7,1.2,1.1,2.7,1.1,4.3
			c0,1.6-0.4,3.1-1.1,4.3c-0.7,1.2-1.7,2.2-3,2.9c-1.3,0.7-2.7,1-4.2,1C243.1,255.2,241.7,254.9,240.5,254.2z M247,250
			c0.7-0.7,1-1.7,1-2.9c0-1.3-0.3-2.2-1-2.9c-0.6-0.7-1.4-1-2.3-1c-0.9,0-1.7,0.3-2.3,1c-0.6,0.7-0.9,1.7-0.9,2.9
			c0,1.3,0.3,2.2,0.9,2.9c0.6,0.7,1.4,1,2.3,1S246.3,250.7,247,250z"/>
		<path class="st1" d="M255.5,242.7c0.7-1.2,1.6-2.2,2.8-2.8c1.2-0.7,2.6-1,4.1-1c2,0,3.6,0.5,5,1.5c1.3,1,2.2,2.5,2.6,4.4l-5.2,0
			c-0.4-1.2-1.3-1.8-2.5-1.8c-0.9,0-1.6,0.3-2.1,1c-0.5,0.7-0.8,1.7-0.8,3c0,1.3,0.3,2.3,0.8,3c0.5,0.7,1.2,1,2.1,1
			c1.2,0,2.1-0.6,2.5-1.8l5.2,0c-0.4,1.9-1.3,3.3-2.6,4.4c-1.3,1.1-3,1.6-5,1.6c-1.6,0-2.9-0.3-4.1-1c-1.2-0.7-2.1-1.6-2.8-2.8
			c-0.7-1.2-1-2.7-1-4.3C254.5,245.4,254.8,244,255.5,242.7z"/>
		<path class="st1" d="M272.9,236.7c-0.5-0.5-0.8-1.1-0.8-1.9c0-0.8,0.3-1.4,0.8-1.9c0.5-0.5,1.2-0.8,2.1-0.8c0.8,0,1.5,0.2,2.1,0.7
			c0.5,0.5,0.8,1.1,0.8,1.9c0,0.7-0.3,1.4-0.8,1.9c-0.5,0.5-1.2,0.8-2.1,0.8C274.2,237.4,273.5,237.2,272.9,236.7z M277.4,239.1
			l0,15.8l-4.8,0l0-15.8L277.4,239.1z"/>
		<path class="st1" d="M280.9,242.7c0.6-1.2,1.4-2.2,2.5-2.8c1.1-0.7,2.2-1,3.5-1c1.1,0,2.1,0.2,2.9,0.7c0.8,0.4,1.5,1,1.9,1.8
			l0-2.2l4.8,0l0,15.8l-4.8,0l0-2.2c-0.5,0.7-1.1,1.3-2,1.8c-0.8,0.5-1.8,0.7-2.9,0.7c-1.3,0-2.5-0.3-3.5-1
			c-1.1-0.7-1.9-1.6-2.5-2.9c-0.6-1.2-0.9-2.7-0.9-4.3C280,245.3,280.3,243.9,280.9,242.7z M290.8,244.1c-0.7-0.7-1.5-1-2.5-1
			c-1,0-1.8,0.4-2.4,1c-0.7,0.7-1,1.6-1,2.9c0,1.2,0.3,2.2,1,2.9c0.7,0.7,1.5,1.1,2.5,1.1c1,0,1.8-0.4,2.4-1.1c0.7-0.7,1-1.7,1-2.9
			S291.5,244.8,290.8,244.1z"/>
		<path class="st1" d="M309,250.7l0,4.1l-2.5,0c-1.8,0-3.1-0.4-4.1-1.3c-1-0.9-1.5-2.3-1.5-4.2l0-6.3l-1.9,0l0-4l1.9,0l0-3.9l4.8,0
			l0,3.9l3.2,0l0,4l-3.2,0l0,6.3c0,0.5,0.1,0.8,0.3,1c0.2,0.2,0.6,0.3,1.1,0.3L309,250.7z"/>
		<path class="st1" d="M312,236.6c-0.5-0.5-0.8-1.1-0.8-1.9c0-0.8,0.3-1.4,0.8-1.9c0.5-0.5,1.2-0.8,2.1-0.8c0.8,0,1.5,0.2,2.1,0.7
			c0.5,0.5,0.8,1.1,0.8,1.9c0,0.7-0.3,1.4-0.8,1.9c-0.5,0.5-1.2,0.8-2.1,0.8C313.3,237.3,312.6,237.1,312,236.6z M316.5,239l0,15.8
			l-4.8,0l0-15.8L316.5,239z"/>
		<path class="st1" d="M323.1,254c-1.2-0.7-2.2-1.6-2.9-2.8c-0.7-1.2-1.1-2.7-1.1-4.3c0-1.6,0.3-3.1,1.1-4.3
			c0.7-1.2,1.7-2.2,2.9-2.9c1.2-0.7,2.6-1,4.2-1c1.5,0,2.9,0.3,4.2,1c1.2,0.7,2.2,1.6,3,2.8c0.7,1.2,1.1,2.7,1.1,4.3
			c0,1.6-0.4,3.1-1.1,4.3c-0.7,1.2-1.7,2.2-3,2.9c-1.3,0.7-2.7,1-4.2,1C325.8,255,324.4,254.6,323.1,254z M329.7,249.7
			c0.7-0.7,1-1.7,1-2.9c0-1.3-0.3-2.2-1-2.9c-0.6-0.7-1.4-1-2.3-1c-0.9,0-1.7,0.3-2.4,1c-0.6,0.7-0.9,1.7-0.9,2.9
			c0,1.3,0.3,2.2,0.9,2.9c0.6,0.7,1.4,1,2.3,1C328.2,250.8,329,250.4,329.7,249.7z"/>
		<path class="st1" d="M352.2,240.5c1.1,1.2,1.7,2.8,1.7,4.9l0,9.2l-4.8,0l0-8.6c0-1.1-0.3-1.9-0.8-2.5c-0.6-0.6-1.3-0.9-2.2-0.9
			c-0.9,0-1.7,0.3-2.2,0.9c-0.5,0.6-0.8,1.4-0.8,2.5l0,8.6l-4.8,0l0-15.8l4.8,0l0,2.1c0.5-0.7,1.1-1.3,2-1.7
			c0.8-0.4,1.8-0.6,2.8-0.6C349.6,238.7,351.1,239.3,352.2,240.5z"/>
	</g>
</g>
</svg>
