<?xml version="1.0" encoding="UTF-8"?>
<svg version="1.1" xmlns="http://www.w3.org/2000/svg" width="493" height="459">
<path d="M0 0 C3.6177338 1.59180287 6.377017 3.82915987 9.4375 6.3125 C31.79884245 23.93788198 58.98311072 38.28088984 86.61328125 45.34375 C89 46 89 46 90 47 C92.8143813 88.05585322 82.47140534 130.40561348 55.40625 162.05859375 C42.08456235 177.2778544 25.79001289 188.5378204 7 196 C5.32164062 196.66708984 5.32164062 196.66708984 3.609375 197.34765625 C-0.94587331 198.17095329 -3.7484908 196.98126356 -7.75 195 C-8.4502832 194.67112793 -9.15056641 194.34225586 -9.87207031 194.00341797 C-11.92766233 193.02656366 -13.96484179 192.01861113 -16 191 C-17.010625 190.50757813 -18.02125 190.01515625 -19.0625 189.5078125 C-50.37244522 173.39775348 -70.61585866 143.49416141 -81.20947266 110.70410156 C-86.12323859 93.8959263 -88.17426324 77.38116207 -88.0625 59.9375 C-88.05747314 58.58138187 -88.05291234 57.22526192 -88.04882812 55.86914062 C-88.03712079 52.57938006 -88.02072211 49.28971406 -88 46 C-87.175 45.73896484 -86.35 45.47792969 -85.5 45.20898438 C-70.47006182 40.41986903 -55.83345547 35.70271952 -42 28 C-40.77375382 27.37703018 -39.54451277 26.75992392 -38.3125 26.1484375 C-24.42571103 19.17791331 -11.90305176 9.94358132 0 0 Z M0 14 C-2.00678401 17.62128443 -4.0042648 21.24761643 -6 24.875 C-6.85851562 26.42380859 -6.85851562 26.42380859 -7.734375 28.00390625 C-8.27578125 28.99003906 -8.8171875 29.97617188 -9.375 30.9921875 C-10.12910156 32.35899658 -10.12910156 32.35899658 -10.8984375 33.75341797 C-12.14675095 35.8822724 -12.14675095 35.8822724 -12 38 C-15.4409863 37.59517808 -18.4790093 37.21808913 -21.6875 35.875 C-24.35872159 34.86426751 -25.33917412 35.20455311 -28 36 C-27.66071805 45.14364848 -26.20248269 53.81952583 -24.28417969 62.75073242 C-22.6201162 70.80794794 -22.6201162 70.80794794 -24 75 C-29.65005529 73.23750503 -32.52501971 69.49771991 -36.40234375 65.21484375 C-39.35190034 62.69995866 -41.1862851 62.27201169 -45 62 C-45.99 64.31 -46.98 66.62 -48 69 C-53.94063051 68.5457868 -59.26048138 67.65563037 -65 66 C-68.29219428 65.83152909 -68.29219428 65.83152909 -71 66 C-71.95899111 69.70271429 -71.97772746 72.07425618 -70.86328125 75.72265625 C-70.61642578 76.59083984 -70.36957031 77.45902344 -70.11523438 78.35351562 C-69.57806041 80.16631438 -69.03109702 81.97623974 -68.47460938 83.78320312 C-67.79090308 86.22242055 -67.1951487 88.47355254 -67 91 C-68.71484375 93.51171875 -68.71484375 93.51171875 -71 95 C-71.7425 95.5775 -72.485 96.155 -73.25 96.75 C-73.8275 97.1625 -74.405 97.575 -75 98 C-73.67789709 101.0118602 -72.36610497 102.80540131 -69.796875 104.84765625 C-68.83068237 105.62411499 -68.83068237 105.62411499 -67.8449707 106.41625977 C-66.80796021 107.23114868 -66.80796021 107.23114868 -65.75 108.0625 C-65.03996826 108.62960693 -64.32993652 109.19671387 -63.59838867 109.78100586 C-61.40530018 111.52889373 -59.20387442 113.26573897 -57 115 C-55.98897217 115.79857422 -55.98897217 115.79857422 -54.95751953 116.61328125 C-51.97371232 118.9698998 -48.98519617 121.32022946 -45.98828125 123.66015625 C-45.00214844 124.43230469 -44.01601562 125.20445312 -43 126 C-42.04222656 126.6909375 -41.08445313 127.381875 -40.09765625 128.09375 C-39.40542969 128.7228125 -38.71320313 129.351875 -38 130 C-38.12559581 133.45388465 -38.85293988 136.41175954 -39.6875 139.75 C-40.29267759 142.28019785 -40.29267759 142.28019785 -38 145 C-37.14768799 144.84853516 -36.29537598 144.69707031 -35.41723633 144.54101562 C-32.240254 143.97852641 -29.06262749 143.41987188 -25.88452148 142.86376953 C-24.51185714 142.62278098 -23.13945616 142.38028706 -21.76733398 142.13623047 C-19.78960765 141.78473032 -17.81082755 141.43917579 -15.83203125 141.09375 C-14.64327393 140.88427734 -13.4545166 140.67480469 -12.22973633 140.45898438 C-9.41311901 140.05870918 -6.83625418 139.82619958 -4 140 C-1.91795642 142.08204358 -2.74178708 146.5338556 -2.68359375 149.41015625 C-2.66281265 150.25219101 -2.64203156 151.09422577 -2.62062073 151.96177673 C-2.55503188 154.66193179 -2.49619724 157.36218717 -2.4375 160.0625 C-2.39432363 161.88868241 -2.35070964 163.71485454 -2.30664062 165.54101562 C-2.19934106 170.02723992 -2.09810034 174.5135655 -2 179 C-0.34385343 179.38218767 1.32457024 179.71395102 3 180 C5.10669459 177.89330541 4.25892489 173.28743711 4.31640625 170.37109375 C4.3475779 169.07474754 4.3475779 169.07474754 4.37937927 167.75221252 C4.44497114 164.98072555 4.50380418 162.20914079 4.5625 159.4375 C4.60567608 157.56314077 4.64929006 155.68879157 4.69335938 153.81445312 C4.80066227 149.20973664 4.90190215 144.60492142 5 140 C13.2377311 140.66378877 21.22054652 142.09137122 29.31640625 143.71484375 C30.25097656 143.89402344 31.18554688 144.07320312 32.1484375 144.2578125 C33.40406494 144.50748779 33.40406494 144.50748779 34.68505859 144.76220703 C37.08121867 145.00834286 38.72266146 144.73333578 41 144 C40.77699219 143.11699219 40.55398438 142.23398437 40.32421875 141.32421875 C39.6129905 137.26192734 39.37043247 134.08799186 40 130 C43.15919132 125.95327667 46.88110475 123.24218571 51.08447266 120.34423828 C54.2514588 118.1217777 57.23229857 115.66887889 60.25 113.25 C63.41342979 110.75689941 66.58957094 108.2983915 69.84765625 105.9296875 C70.66105469 105.33414063 71.47445312 104.73859375 72.3125 104.125 C73.00988281 103.63257813 73.70726562 103.14015625 74.42578125 102.6328125 C76.44662222 100.53675413 76.6672609 98.84516046 77 96 C74.03 94.02 74.03 94.02 71 92 C71.27714844 90.865625 71.55429687 89.73125 71.83984375 88.5625 C72.20595709 87.04172152 72.57182963 85.52088505 72.9375 84 C73.11990234 83.25621094 73.30230469 82.51242188 73.49023438 81.74609375 C74.6633447 76.84035967 75.55659351 72.02901535 76 67 C75.67 66.67 75.34 66.34 75 66 C68.58367792 66.42074243 62.69217379 67.75364766 56.50390625 69.4765625 C54 70 54 70 52 69 C50.94647157 66.69034152 49.94280904 64.3570226 49 62 C46.78098452 61.44597334 46.78098452 61.44597334 44 62 C41.54595901 63.93401984 39.51980858 66.24057018 37.4375 68.5625 C36.32334933 69.80398218 35.19749119 71.03508618 34.05859375 72.25390625 C33.56673584 72.80377197 33.07487793 73.3536377 32.56811523 73.92016602 C31 75 31 75 28.80883789 74.67163086 C28.21192139 74.44999268 27.61500488 74.22835449 27 74 C27.73280488 66.42511167 29.08948461 59.08856935 30.62695312 51.640625 C31.61937822 46.65305274 32.21596408 42.08560583 32 37 C30.40686815 35.65682309 30.40686815 35.65682309 28 35 C25.6372026 35.92824183 23.30252483 36.93097061 21 38 C19.68 38 18.36 38 17 38 C16.66266846 37.30849854 16.32533691 36.61699707 15.9777832 35.90454102 C14.44114277 32.78104658 12.87732208 29.67196475 11.3125 26.5625 C10.78205078 25.47388672 10.25160156 24.38527344 9.70507812 23.26367188 C9.17978516 22.22919922 8.65449219 21.19472656 8.11328125 20.12890625 C7.63673096 19.17056885 7.16018066 18.21223145 6.66918945 17.22485352 C5.16172591 14.75952097 5.16172591 14.75952097 2.30541992 14.17944336 C1.54463135 14.12022705 0.78384277 14.06101074 0 14 Z " fill="#E41124" transform="translate(233,138)"/>
<path d="M0 0 C4.37056061 3.55167561 6.88317476 6.78757815 7.79296875 12.45703125 C8.46448975 12.4425293 9.13601074 12.42802734 9.82788086 12.41308594 C16.44980539 12.33239402 22.80499683 12.76190871 29.35546875 13.70703125 C30.31163086 13.84415527 31.26779297 13.9812793 32.25292969 14.12255859 C86.3210687 22.15631036 136.79260217 50.74933916 169.60400391 94.86230469 C170.68664541 96.31442261 171.79139854 97.74998856 172.8984375 99.18359375 C205.51077598 142.27614479 218.15881039 198.86476735 210.90087891 252.02612305 C210.30588278 255.85950532 209.5667477 259.65629319 208.79296875 263.45703125 C208.63876465 264.26205078 208.48456055 265.06707031 208.32568359 265.89648438 C201.22737326 302.32928758 182.87255604 336.0560493 157.84375 363.21875 C155.91852329 365.31999744 154.07218572 367.47022431 152.23046875 369.64453125 C148.71400676 373.65425262 144.89527687 377.05743332 140.79296875 380.45703125 C140.25027344 380.9173877 139.70757812 381.37774414 139.1484375 381.85205078 C115.15312391 402.19283187 87.3232855 417.39921551 56.79296875 425.45703125 C55.96909668 425.67488281 55.14522461 425.89273437 54.29638672 426.1171875 C8.76462912 437.80269816 -39.32457526 433.31595441 -82.20703125 414.45703125 C-82.95178711 414.13476562 -83.69654297 413.8125 -84.46386719 413.48046875 C-100.43893361 406.51570784 -114.70961258 397.44359471 -128.20703125 386.45703125 C-128.73361328 386.03341309 -129.26019531 385.60979492 -129.80273438 385.17333984 C-143.5446572 374.07377338 -155.85617725 361.79496313 -166.20703125 347.45703125 C-166.91375977 346.48419189 -166.91375977 346.48419189 -167.63476562 345.49169922 C-190.79135506 313.22241988 -207.78634232 272.64329444 -207.26953125 232.33203125 C-207.26050781 231.40132812 -207.25148437 230.470625 -207.2421875 229.51171875 C-207.23058594 228.83367187 -207.21898437 228.155625 -207.20703125 227.45703125 C-207.97015625 227.32554687 -208.73328125 227.1940625 -209.51953125 227.05859375 C-215.49123226 225.72190486 -218.89917514 221.97556651 -222.2265625 217.140625 C-225.1947236 212.04390215 -224.71326667 206.1485638 -224.20703125 200.45703125 C-222.50450763 194.27256294 -218.51684616 189.92331375 -213.20703125 186.45703125 C-206.8502193 183.41365559 -199.59834709 183.43103478 -192.89453125 185.51953125 C-187.22886032 187.99245729 -184.24909451 192.58131738 -181.33203125 197.83203125 C-179.33188326 204.27695254 -179.44624839 210.28183582 -182.09765625 216.53515625 C-185.52539591 222.47335313 -189.67799453 225.56001917 -196.20703125 227.45703125 C-192.94503674 278.66769306 -175.05200306 324.28635636 -139.20703125 361.45703125 C-138.33175781 362.40707031 -137.45648438 363.35710937 -136.5546875 364.3359375 C-123.69320207 378.04767438 -107.95516455 389.02815802 -91.20703125 397.45703125 C-90.40152832 397.86791992 -89.59602539 398.27880859 -88.76611328 398.70214844 C-40.19448224 423.2951472 14.11606983 427.09099702 66.01318359 410.75830078 C83.20604908 405.09588132 100.0577175 396.97217267 114.79296875 386.45703125 C115.43572754 386.00070312 116.07848633 385.544375 116.74072266 385.07421875 C126.00582858 378.44076651 134.59505141 371.37268497 142.79296875 363.45703125 C143.5303125 362.75964844 144.26765625 362.06226563 145.02734375 361.34375 C150.12042976 356.41845946 154.51206536 351.09511818 158.79296875 345.45703125 C159.2636377 344.85165527 159.73430664 344.2462793 160.21923828 343.62255859 C192.27355196 302.21611803 205.87965213 249.35931389 199.96777344 197.47314453 C197.14057106 176.3758136 191.25153995 155.70605636 181.8737793 136.59448242 C180.97835698 134.7652171 180.10274637 132.9273619 179.22851562 131.08789062 C171.07410541 114.15403478 159.70063341 99.06463307 146.79296875 85.45703125 C146.33615723 84.9676709 145.8793457 84.47831055 145.40869141 83.97412109 C132.35102516 70.05836726 117.24368368 59.04384166 100.79296875 49.45703125 C100.19339355 49.10302246 99.59381836 48.74901367 98.97607422 48.38427734 C71.33936838 32.23571136 39.54271908 24.74298482 7.79296875 23.45703125 C7.68855469 24.19824219 7.58414063 24.93945312 7.4765625 25.703125 C6.12820004 31.13509947 2.16035834 34.97791517 -2.5078125 37.89453125 C-8.76553966 40.76889397 -14.55212925 41.29052466 -21.20703125 39.45703125 C-27.06795645 36.68787852 -31.21126513 33.19891632 -34.20703125 27.45703125 C-36.12129496 21.28450745 -36.323678 14.08674134 -33.64453125 8.14453125 C-29.91323152 1.77783801 -24.60272512 -2.12782719 -17.53125 -4.1328125 C-10.81884811 -5.31735401 -5.55667004 -3.84863175 0 0 Z M-23.20703125 10.45703125 C-25.10514216 13.59304058 -25.21382068 15.26692727 -25.08203125 18.95703125 C-24.08796442 22.93329857 -23.25650134 24.72032732 -20.20703125 27.45703125 C-15.98085597 29.46905818 -13.00624986 29.6568359 -8.45703125 28.51953125 C-4.55264148 26.04174543 -2.59911749 23.86985363 -1.20703125 19.45703125 C-1.13065551 15.10361384 -1.93764513 12.44980568 -4.58203125 9.08203125 C-7.67558327 5.98847923 -9.22849268 5.5678092 -13.51953125 5.08203125 C-18.25170719 5.56326948 -19.95566862 7.05444245 -23.20703125 10.45703125 Z M-210.20703125 196.45703125 C-212.73754522 199.11407092 -214.05585351 200.97913852 -214.43359375 204.671875 C-214.24132328 209.11628094 -213.57222316 211.03966907 -210.58203125 214.45703125 C-206.83612783 216.67682587 -204.55513168 217.45703125 -200.20703125 217.45703125 C-196.05731939 215.94079038 -193.38021809 214.3458919 -191.20703125 210.45703125 C-189.64808736 206.02003709 -190.48354533 202.76574605 -192.20703125 198.45703125 C-194.73051549 195.79335345 -196.60365384 194.65378475 -200.08203125 193.51953125 C-204.23578789 193.43645612 -206.61003288 194.39208774 -210.20703125 196.45703125 Z " fill="#E41628" transform="translate(231.20703125,14.54296875)"/>
<path d="M0 0 C8.99061722 7.99165975 17.02430039 16.2972963 24.44140625 25.78125 C25.10011719 26.62300781 25.75882812 27.46476562 26.4375 28.33203125 C54.4419367 65.46467469 65.81874533 113.13068349 59.84375 159.04248047 C54.89669071 192.71730515 41.57090686 223.83177607 19.44140625 249.78125 C18.79171875 250.55339844 18.14203125 251.32554687 17.47265625 252.12109375 C-6.3947251 279.59529952 -36.09591378 296.98208312 -70.55859375 307.78125 C-71.60789062 308.11382812 -72.6571875 308.44640625 -73.73828125 308.7890625 C-116.77433289 320.92088715 -165.47511033 312.98562445 -204.31884766 291.85205078 C-219.20067392 283.44910908 -232.17122119 272.46269359 -244.55859375 260.78125 C-245.35394531 260.04003906 -246.14929688 259.29882812 -246.96875 258.53515625 C-272.74776028 233.75638975 -287.96843095 199.45374405 -294.55859375 164.78125 C-294.78546875 163.65589844 -295.01234375 162.53054688 -295.24609375 161.37109375 C-302.68362966 117.21072426 -290.86595369 70.14905511 -265.578125 33.5390625 C-258.87687283 24.38802955 -251.31245573 16.03648952 -243.55859375 7.78125 C-242.62853516 6.75257812 -242.62853516 6.75257812 -241.6796875 5.703125 C-181.34681294 -58.5439629 -74.27373373 -58.74044867 0 0 Z M-235.40039062 14.71655273 C-257.33877417 35.95546007 -272.02443637 61.51653433 -280.55859375 90.78125 C-281.06132812 92.39580078 -281.06132812 92.39580078 -281.57421875 94.04296875 C-293.3764162 133.67289645 -285.62293429 179.81310024 -266.55859375 215.78125 C-258.92292635 229.77342817 -249.41995866 242.16780991 -238.55859375 253.78125 C-237.74777344 254.6578125 -236.93695313 255.534375 -236.1015625 256.4375 C-216.32941439 277.06930673 -190.76609705 290.70179204 -163.55859375 298.78125 C-162.73705811 299.02641357 -161.91552246 299.27157715 -161.0690918 299.52416992 C-130.53904846 308.29242661 -95.49941291 307.23600638 -65.55859375 296.78125 C-64.79208496 296.52327637 -64.02557617 296.26530273 -63.23583984 295.99951172 C-35.73934457 286.71173254 -9.19781991 270.32754472 9.44140625 247.78125 C9.869375 247.28157715 10.29734375 246.7819043 10.73828125 246.26708984 C31.84399836 221.60268211 43.95314259 192.54991995 49.44140625 160.78125 C49.7051001 159.38447021 49.7051001 159.38447021 49.97412109 157.95947266 C53.71513203 132.51512552 50.13152522 104.79903279 41.44140625 80.78125 C41.06242187 79.69199219 40.6834375 78.60273438 40.29296875 77.48046875 C32.06218486 54.8596231 18.89924926 35.23090276 2.44140625 17.78125 C1.87035156 17.16894531 1.29929687 16.55664062 0.7109375 15.92578125 C-23.62437067 -9.33438423 -57.28340328 -25.40159313 -91.55859375 -31.21875 C-92.46351563 -31.39535156 -93.3684375 -31.57195312 -94.30078125 -31.75390625 C-146.11329093 -39.1468183 -197.76491986 -21.06126979 -235.40039062 14.71655273 Z " fill="#E51729" transform="translate(351.55859375,101.21875)"/>
<path d="M0 0 C5.69833083 3.38116725 9.00736503 8.17833486 11.05859375 14.37890625 C12.76759784 21.14868215 10.72283343 26.98401362 8.5625 33.375 C9.490625 34.24125 10.41875 35.1075 11.375 36 C17.01324303 41.63824303 21.74771311 48.03720488 26.5625 54.375 C27.28953125 55.33019531 28.0165625 56.28539062 28.765625 57.26953125 C54.79717136 92.26863787 69.84787559 134.1989659 74.5625 177.375 C74.73072266 178.80972656 74.73072266 178.80972656 74.90234375 180.2734375 C81.15953169 244.21675533 60.96823751 309.62106424 20.5625 359.375 C19.55478778 360.53168117 18.53930067 361.68164124 17.515625 362.82421875 C17.03883301 363.36312744 16.56204102 363.90203613 16.07080078 364.45727539 C14.77831385 365.89871996 13.45655187 367.31376422 12.1328125 368.7265625 C10.17735913 371.32614411 10.17735913 371.32614411 11.28515625 374.43359375 C11.70667969 375.40425781 12.12820313 376.37492187 12.5625 377.375 C13.42772776 384.01590399 12.26464363 389.42857031 8.42578125 395.03515625 C4.87703597 399.59143174 1.17901201 402.20660152 -4.4375 403.375 C-11.53632194 404.1228897 -17.36687405 403.2577964 -23.4375 399.375 C-28.03480411 395.39678422 -30.87286366 390.0544434 -31.79296875 384.05859375 C-32.18673209 377.25819438 -30.41119041 371.89823954 -26.4375 366.375 C-21.21978097 361.37045626 -16.83380263 359.23283231 -9.5625 359.1875 C-8.53382813 359.17332031 -7.50515625 359.15914063 -6.4453125 359.14453125 C-3.4375 359.375 -3.4375 359.375 -0.8046875 360.44921875 C1.44876935 361.50198535 1.44876935 361.50198535 3.55859375 361.34765625 C6.62925069 359.85722043 8.50851294 357.4083997 10.625 354.8125 C11.10251709 354.23532227 11.58003418 353.65814453 12.07202148 353.06347656 C37.54497656 321.73654017 54.4122944 284.05542025 61.5625 244.375 C61.72476074 243.47910156 61.88702148 242.58320313 62.05419922 241.66015625 C72.43622542 181.23226383 57.58944389 117.73453041 22.625 67.625 C17.3354025 60.17848752 11.56711184 53.25232004 5.5625 46.375 C3.88547749 44.38335635 2.22320212 42.38032009 0.5625 40.375 C-0.15550781 40.69597656 -0.87351562 41.01695313 -1.61328125 41.34765625 C-8.02231262 43.67901898 -14.54263533 43.1567383 -20.75 40.4375 C-26.79478848 37.07821468 -30.2772173 31.8558481 -32.4375 25.375 C-33.2060921 17.88122699 -31.67981838 12.08344962 -27.8125 5.6875 C-20.10353252 -1.81859992 -10.15939922 -4.54297663 0 0 Z M-19.25 13.125 C-20.92057261 16.29029548 -21.31421301 18.79967732 -21.4375 22.375 C-20.14056412 26.26580764 -18.75860409 28.09038501 -15.6875 30.8125 C-11.58817125 32.78333113 -9.76996196 32.69021167 -5.4375 31.375 C-2.53289973 29.49938368 -0.01130949 27.52261898 1.5625 24.375 C2.1567562 19.36626915 2.1481391 16.48989182 -1 12.4375 C-3.39653667 9.97329641 -4.53834633 9.34258511 -7.9375 8.25 C-12.7757631 8.42279511 -15.77230026 9.76722094 -19.25 13.125 Z M-20.06640625 374.18359375 C-22.48897733 378.05556633 -22.40464147 381.98832264 -21.4375 386.375 C-18.81592016 390.13410443 -15.64761719 391.95516342 -11.375 393.4375 C-6.48340631 393.33342354 -3.59992364 391.44565336 -0.0625 388.1875 C2.06508924 384.50513401 2.56666751 381.46118933 1.5625 377.375 C-0.3246653 373.78663094 -2.5659041 371.09912937 -6.40625 369.61328125 C-11.89654718 368.63136272 -16.25018219 369.94639534 -20.06640625 374.18359375 Z " fill="#E41528" transform="translate(405.4375,33.625)"/>
</svg>
